<svg width="100" height="100" xmlns="http://www.w3.org/2000/svg">

 <g>
  <title>background</title>
  <rect fill="none" id="canvas_background" height="402" width="582" y="-1" x="-1"/>
 </g>
 <g>
  <title>Layer 1</title>
  <path fill="#dc143c" id="svg_2" d="m83.825419,28l-54,0c-0.55225,0 -1,0.44775 -1,1l0,4l-4,0c-0.55225,0 -1,0.44775 -1,1l0,4l-4,0c-0.55225,0 -1,0.44775 -1,1l0,32c0,0.55273 0.44775,1 1,1l54,0c0.55225,0 1,-0.44727 1,-1l0,-4l4,0c0.55225,0 1,-0.44727 1,-1l0,-4l4,0c0.55225,0 1,-0.44727 1,-1l0,-32c0,-0.55225 -0.44775,-1 -1,-1zm-11,42l-52,0l0,-30l52,0l0,30zm5,-5l-3,0l0,-26c0,-0.55225 -0.44775,-1 -1,-1l-48,0l0,-3l52,0l0,30zm5,-5l-3,0l0,-26c0,-0.55225 -0.44775,-1 -1,-1l-48,0l0,-3l52,0l0,30z" class="st4"/>
  <path fill="#dc143c" id="svg_3" d="m68,45l-4,0c-0.55225,0 -1,0.44775 -1,1s0.44775,1 1,1l4,0c0.55225,0 1,-0.44775 1,-1s-0.44775,-1 -1,-1z" class="st4"/>
  <path fill="#dc143c" id="svg_4" d="m56,46c0,-0.55225 -0.44775,-1 -1,-1l-10.28467,0l-4.71533,0c-0.55225,0 -1,0.44775 -1,1s0.44775,1 1,1l4.71533,0c1.40723,0 2.74121,0.68945 3.56885,1.84424c0.46149,0.64361 0.75055,1.39178 0.8609,2.15576l-9.14508,0c-0.55225,0 -1,0.44727 -1,1s0.44775,1 1,1l8.99878,0c-0.01056,0.03412 -0.01618,0.0697 -0.02759,0.10352c-0.3999,1.18652 -1.28515,2.04394 -2.49267,2.41503c-1.64991,0.50782 -3.4087,0.49708 -5.27002,0.48438c-0.40528,-0.00293 -0.81055,-0.00586 -1.21534,-0.00293c-0.4292,0.00293 -0.80859,0.2793 -0.94287,0.68652c-0.13427,0.40821 0.00635,0.85645 0.34961,1.11328l12,9c0.18018,0.13477 0.39063,0.2002 0.59912,0.2002c0.3042,0 0.6045,-0.1377 0.80078,-0.40039c0.33155,-0.44141 0.24219,-1.06836 -0.1997,-1.39941l-9.60449,-7.20411c1.35595,-0.03125 2.72607,-0.15234 4.0708,-0.56543c1.83935,-0.56543 3.18847,-1.875 3.7998,-3.6875c0.08197,-0.2431 0.14746,-0.49157 0.19861,-0.74316l3.93518,0c0.55225,0 1,-0.44727 1,-1s-0.44775,-1 -1,-1l-3.85175,0c-0.12072,-1.17841 -0.53411,-2.33856 -1.23809,-3.3208c-0.17371,-0.24237 -0.3667,-0.46607 -0.5694,-0.6792l5.65924,0c0.55225,0 1,-0.44775 1,-1z" class="st4"/>
  <path fill="#dc143c" id="svg_5" d="m30,63l-4,0c-0.55225,0 -1,0.44775 -1,1s0.44775,1 1,1l4,0c0.55225,0 1,-0.44775 1,-1s-0.44775,-1 -1,-1z" class="st4"/>
 </g>
</svg>