<svg width="512" height="512" xmlns="http://www.w3.org/2000/svg">

 <g>
  <title>background</title>
  <rect fill="none" id="canvas_background" height="402" width="582" y="-1" x="-1"/>
 </g>
 <g>
  <title>Layer 1</title>
  <path fill="#dc143c" id="svg_2" d="m180.4,209.1l50.4,0c1.1,2.8 3.8,4.8 7,4.8l36.6,0c3.2,0 5.9,-2 7,-4.8l55,0c4.1,0 7.5,-3.4 7.5,-7.5l0,-43c0,-4.1 -3.4,-7.5 -7.5,-7.5l-55,0c-1.1,-2.8 -3.8,-4.8 -7,-4.8l-36.6,0c-3.2,0 -5.9,2 -7,4.8l-50.4,0c-4.1,0 -7.5,3.4 -7.5,7.5l0,43c0,4.1 3.4,7.5 7.5,7.5zm148.6,-15l-47,0l0,-28l47,0l0,28zm-83.7,-32.8l21.6,0l0,37.7l-21.6,0l0,-37.7zm-57.4,4.8l42.4,0l0,28l-42.4,0l0,-28z"/>
  <path fill="#dc143c" id="svg_3" d="m419.95952,86.6l-326,0c-2.8,0 -5.4,1.6 -6.7,4.1c-1.3,2.5 -1.1,5.5 0.6,7.8l22.5,31.3l0,28.8c0,4.1 3.4,7.5 7.5,7.5l26.5,0l0,28l-26.5,0c-4.1,0 -7.5,3.4 -7.5,7.5l0,29.5c0,4.1 3.4,7.5 7.5,7.5l26.5,0l0,120.7l-3,0c-4.1,0 -7.5,3.4 -7.5,7.5l0,51c0,4.1 3.4,7.5 7.5,7.5l50.6,0c4.1,0 7.5,-3.4 7.5,-7.5l0,-51c0,-4.1 -3.4,-7.5 -7.5,-7.5l-3,0l0,-120.7l141,0l0,120.7l-3,0c-4.1,0 -7.5,3.4 -7.5,7.5l0,51c0,4.1 3.4,7.5 7.5,7.5l50.6,0c4.1,0 7.5,-3.4 7.5,-7.5l0,-51c0,-4.1 -3.4,-7.5 -7.5,-7.5l-3,0l0,-120.7l21.8,0c4.1,0 7.5,-3.4 7.5,-7.5l0,-29.5c0,-4.1 -3.4,-7.5 -7.5,-7.5l-21.8,0l0,-28l21.8,0c4.1,0 7.5,-3.4 7.5,-7.5l0,-29.1l22.3,-31c1.6,-2.3 1.9,-5.3 0.6,-7.8c-1.4,-2.5 -4,-4.1 -6.8,-4.1zm-235.5,323.8l-35.6,0l0,-36l3,0l29.5,0l3,0l0,36l0.1,0zm185.5,0l-35.6,0l0,-36l3,0l29.6,0l3,0l0,36zm18.8,-259.3l-21.8,0c-4.1,0 -7.5,3.4 -7.5,7.5l0,43c0,4.1 3.4,7.5 7.5,7.5l21.8,0l0,14.5l-21.8,0c-4.1,0 -7.5,3.4 -7.5,7.5l0,128.2l-14.5,0l0,-128.2c0,-4.1 -3.4,-7.5 -7.5,-7.5l-156,0c-4.1,0 -7.5,3.4 -7.5,7.5l0,128.2l-14.5,0l0,-128.2c0,-4.1 -3.4,-7.5 -7.5,-7.5l-26.5,0l0,-14.5l26.5,0c4.1,0 7.5,-3.4 7.5,-7.5l0,-43c0,-4.1 -3.4,-7.5 -7.5,-7.5l-26.5,0l0,-14.5l263.3,0l0,14.5zm2.2,-29.5l-268,0l-14.4,-19.9l296.7,0l-14.3,19.9z"/>
 </g>
</svg>