<svg width="32" height="32" xmlns="http://www.w3.org/2000/svg">

 <g>
  <title>background</title>
  <rect fill="none" id="canvas_background" height="34" width="34" y="-1" x="-1"/>
 </g>
 <g>
  <title>Layer 1</title>
  <path id="svg_4" fill="#dc143c" d="m1.5,8.950483c-0.276,0 -0.5,-0.224 -0.5,-0.5s0.224,-0.5 0.5,-0.5c14.384,0 23.066,0 25.584,-3.777c0.123,-0.184 0.351,-0.266 0.561,-0.201c0.21,0.063 0.355,0.257 0.355,0.478l0,2.5c0,0.276 -0.224,0.5 -0.5,0.5s-0.5,-0.224 -0.5,-0.5l0,-1.174c-3.559,3.174 -12.118,3.174 -25.5,3.174z"/>
  <path id="svg_8" fill="#dc143c" d="m13.979,11.008483c-1.78,0 -3.686,-0.014 -5.713,-0.027c-2.153,-0.015 -4.415,-0.031 -6.766,-0.031c-0.276,0 -0.5,-0.224 -0.5,-0.5s0.224,-0.5 0.5,-0.5c2.354,0 4.618,0.016 6.772,0.03c10.592,0.069 18.957,0.13 20.865,-1.875c0.142,-0.148 0.359,-0.195 0.548,-0.119c0.19,0.075 0.315,0.26 0.315,0.464l0,2c0,0.276 -0.224,0.5 -0.5,0.5s-0.5,-0.224 -0.5,-0.5l0,-1.008c-2.408,1.338 -7.611,1.566 -15.021,1.566z"/>
  <path id="svg_12" fill="#dc143c" d="m1.5,11.950483c-0.276,0 -0.5,0.224 -0.5,0.5s0.224,0.5 0.5,0.5l28.5,0l0,14l-28.5,0c-0.276,0 -0.5,0.224 -0.5,0.5l0,0c0,0.276 0.224,0.5 0.5,0.5l29,0c0.276,0 0.5,-0.224 0.5,-0.5l0,-15c0,-0.276 -0.224,-0.5 -0.5,-0.5l-29,0z"/>
  <path id="svg_15" fill="#dc143c" d="m1,14.499l0,13.001c0,0.276 0.224,0.5 0.5,0.5l0,0c0.276,0 0.5,-0.224 0.5,-0.5l0,-13.001c0,-0.276 -0.224,-0.5 -0.5,-0.5s-0.5,0.224 -0.5,0.5z"/>
  <g id="svg_16">
   <g id="svg_17">
    <g id="svg_18">
     <g id="svg_19">
      <path id="svg_20" fill="#dc143c" d="m18.5,21.950483l-4,0c-0.276,0 -0.5,-0.224 -0.5,-0.5s0.224,-0.5 0.5,-0.5l4,0c0.276,0 0.5,0.224 0.5,0.5s-0.224,0.5 -0.5,0.5z"/>
     </g>
    </g>
    <g id="svg_21">
     <g id="svg_22">
      <path id="svg_23" fill="#dc143c" d="m18.5,19.950483l-4,0c-0.276,0 -0.5,-0.224 -0.5,-0.5s0.224,-0.5 0.5,-0.5l4,0c0.276,0 0.5,0.224 0.5,0.5s-0.224,0.5 -0.5,0.5z"/>
     </g>
    </g>
   </g>
   <g id="svg_24">
    <g id="svg_25">
     <path id="svg_26" fill="#dc143c" d="m16.5,24.450483c-0.276,0 -0.5,-0.224 -0.5,-0.5l0,-4.5c0,-0.276 0.224,-0.5 0.5,-0.5s0.5,0.224 0.5,0.5l0,4.5c0,0.276 -0.224,0.5 -0.5,0.5z"/>
    </g>
   </g>
   <g id="svg_27">
    <g id="svg_28">
     <path id="svg_29" fill="#dc143c" d="m16.5,19.534483c-0.15,0 -0.294,-0.068 -0.389,-0.186l-2.5,-3.083c-0.174,-0.214 -0.141,-0.529 0.074,-0.703c0.212,-0.174 0.528,-0.142 0.703,0.073l2.112,2.605l2.111,-2.605c0.175,-0.215 0.491,-0.247 0.703,-0.073c0.215,0.174 0.248,0.489 0.074,0.703l-2.5,3.083c-0.094,0.118 -0.238,0.186 -0.388,0.186z"/>
    </g>
   </g>
  </g>
 </g>
</svg>